<?xml version="1.0" standalone="yes"?>

<svg version="1.1" viewBox="0.0 0.0 140.8215223097113 100.0" fill="none" stroke="none" stroke-linecap="square" stroke-miterlimit="10" xmlns="http://www.w3.org/2000/svg" xmlns:xlink="http://www.w3.org/1999/xlink"><clipPath id="p.0"><path d="m0 0l140.82152 0l0 100.0l-140.82152 0l0 -100.0z" clip-rule="nonzero"></path></clipPath><g clip-path="url(#p.0)"><path fill="#000000" fill-opacity="0.0" d="m0 0l140.82152 0l0 100.0l-140.82152 0z" fill-rule="evenodd"></path><path fill="#000000" fill-opacity="0.0" d="m0 0l139.37007 0l0 94.614174l-139.37007 0z" fill-rule="evenodd"></path><path fill="#000000" d="m12.0625 70.97125l0.375 -1.6875q3.28125 -0.625 4.390625 -1.4375q1.109375 -0.8125 2.0 -2.890625q0.890625 -2.078125 2.421875 -8.578125q2.03125 -8.59375 3.6875 -12.375q2.53125 -5.6875 6.296875 -8.4375q3.765625 -2.75 7.609375 -2.75q2.46875 0 4.15625 1.25q1.6875 1.25 1.6875 2.59375q0 0.75 -0.515625 1.28125q-0.515625 0.53125 -1.234375 0.53125q-0.9375 0 -2.28125 -1.21875q-1.5 -1.3125 -2.328125 -1.71875q-0.828125 -0.40625 -1.609375 -0.40625q-0.90625 0 -1.78125 0.5q-1.21875 0.6875 -2.609375 2.609375q-1.390625 1.921875 -2.890625 5.703125q-0.96875 2.5625 -2.46875 8.4375q-2.34375 9.34375 -3.5625 12.40625q-0.875 2.1875 -2.125 3.625q4.46875 -1.0 7.125 -1.0q1.65625 0 3.0625 0.203125q1.40625 0.203125 4.90625 1.015625q3.03125 0.71875 4.25 0.71875q1.1875 0 2.015625 -0.734375q0.828125 -0.734375 0.828125 -1.671875q0 -0.59375 -0.4375 -1.65625q-0.40625 -1.0 -0.40625 -1.59375q0 -0.84375 0.5 -1.328125q0.5 -0.484375 1.3125 -0.484375q0.9375 0 1.59375 0.828125q0.65625 0.828125 0.65625 2.265625q0 2.71875 -2.25 4.6875q-2.25 1.96875 -6.09375 1.96875q-1.90625 0 -4.90625 -0.28125q-10.125 -0.90625 -13.25 -0.90625q-4.59375 0 -8.125 0.53125z" fill-rule="nonzero"></path><path fill="#ff9900" d="m53.703125 41.799377l5.609375 0l-1.0625 5.078125l-5.59375 0l1.046875 -5.078125zm-1.640625 7.890625l5.609375 0l-4.34375 20.75l-5.59375 0l4.328125 -20.75z" fill-rule="nonzero"></path><path fill="#000000" d="m57.83203 47.315002l4.328125 0l2.84375 18.609375l2.875 -18.609375l4.15625 0l-4.390625 23.125l-5.25 0l-4.5625 -23.125z" fill-rule="nonzero"></path><path fill="#000000" d="m74.685135 60.080627q0 -2.765625 0.796875 -4.8125q0.796875 -2.0625 2.109375 -3.421875q1.328125 -1.359375 3.046875 -2.03125q1.71875 -0.6875 3.515625 -0.6875q4.203125 0 6.4375 2.625q2.25 2.609375 2.25 7.96875q0 0.234375 0 0.625q0 0.375 -0.046875 0.6875l-14.234375 0q0.234375 3.25 1.875 4.9375q1.640625 1.671875 5.125 1.671875q1.953125 0 3.296875 -0.34375q1.34375 -0.34375 2.015625 -0.65625l0.53125 3.109375q-0.6875 0.375 -2.390625 0.765625q-1.6875 0.40625 -3.859375 0.40625q-2.71875 0 -4.703125 -0.8125q-1.96875 -0.828125 -3.25 -2.265625q-1.28125 -1.453125 -1.90625 -3.421875q-0.609375 -1.984375 -0.609375 -4.34375zm14.265625 -2.046875q0.046875 -2.515625 -1.25 -4.125q-1.296875 -1.625 -3.578125 -1.625q-1.28125 0 -2.265625 0.5q-0.984375 0.5 -1.671875 1.296875q-0.671875 0.796875 -1.046875 1.84375q-0.375 1.03125 -0.5 2.109375l10.3125 0z" fill-rule="nonzero"></path><path fill="#000000" d="m97.435745 46.799377l7.265625 -0.609375l0 1.953125q0.421875 -0.375 2.21875 -1.265625q1.796875 -0.890625 3.390625 -0.890625q2.484375 0 4.046875 1.796875q1.578125 1.796875 1.578125 4.703125l0 17.65625l-7.25 0.609375l0 -16.140625q0 -2.171875 -1.21875 -2.171875q-0.5 0 -1.21875 0.359375q-0.71875 0.34375 -1.546875 0.84375l0 16.5l-7.265625 0.609375l0 -23.953125z" fill-rule="nonzero"></path></g></svg>

